<svg xmlns="http://www.w3.org/2000/svg" viewBox="0 0 960 600" role="img" aria-labelledby="title desc">
  <title id="title">Ratings illustration</title>
  <desc id="desc">Rows of cards with star ratings and feedback snippets.</desc>
  <defs>
    <linearGradient id="bg" x1="0" y1="0" x2="1" y2="1">
      <stop offset="0%" stop-color="#22c55e" stop-opacity="0.22"/>
      <stop offset="100%" stop-color="#3b82f6" stop-opacity="0.12"/>
    </linearGradient>
    <style>
      .panel { fill: url(#bg); stroke: #cbd5e1; stroke-width: 2; }
      .card { fill: #fff; stroke: #94a3b8; stroke-width: 2; rx: 16; }
      .line { fill: #334155; opacity: .75; rx: 6; }
      .star { fill: #f59e0b; }
      .star-o { fill: none; stroke: #f59e0b; stroke-width: 2; }
    </style>
  </defs>

  <rect x="60" y="60" width="840" height="480" rx="24" class="panel"/>

  <g transform="translate(96 120)">
    <g transform="translate(0 0)">
      <rect class="card" x="0" y="0" width="720" height="120"/>
      <!-- stars -->
      <g transform="translate(28 28) scale(1.2)">
        <polygon class="star" points="10,0 13,7 21,8 15,13 16,21 10,17 4,21 5,13 -1,8 7,7"/>
        <g transform="translate(30 0)">
          <polygon class="star" points="10,0 13,7 21,8 15,13 16,21 10,17 4,21 5,13 -1,8 7,7"/>
        </g>
        <g transform="translate(60 0)">
          <polygon class="star" points="10,0 13,7 21,8 15,13 16,21 10,17 4,21 5,13 -1,8 7,7"/>
        </g>
        <g transform="translate(90 0)">
          <polygon class="star" points="10,0 13,7 21,8 15,13 16,21 10,17 4,21 5,13 -1,8 7,7"/>
        </g>
        <g transform="translate(120 0)">
          <polygon class="star-o" points="10,0 13,7 21,8 15,13 16,21 10,17 4,21 5,13 -1,8 7,7"/>
        </g>
      </g>
      <!-- lines -->
      <rect class="line" x="28" y="76" width="260" height="10"/>
      <rect class="line" x="300" y="76" width="180" height="10" opacity=".5"/>
    </g>

    <g transform="translate(0 150)">
      <rect class="card" x="0" y="0" width="720" height="120"/>
      <g transform="translate(28 28) scale(1.2)">
        <polygon class="star" points="10,0 13,7 21,8 15,13 16,21 10,17 4,21 5,13 -1,8 7,7"/>
        <g transform="translate(30 0)">
          <polygon class="star" points="10,0 13,7 21,8 15,13 16,21 10,17 4,21 5,13 -1,8 7,7"/>
        </g>
        <g transform="translate(60 0)">
          <polygon class="star" points="10,0 13,7 21,8 15,13 16,21 10,17 4,21 5,13 -1,8 7,7"/>
        </g>
        <g transform="translate(90 0)">
          <polygon class="star" points="10,0 13,7 21,8 15,13 16,21 10,17 4,21 5,13 -1,8 7,7"/>
        </g>
        <g transform="translate(120 0)">
          <polygon class="star" points="10,0 13,7 21,8 15,13 16,21 10,17 4,21 5,13 -1,8 7,7"/>
        </g>
      </g>
      <rect class="line" x="28" y="76" width="300" height="10"/>
      <rect class="line" x="340" y="76" width="180" height="10" opacity=".5"/>
    </g>

    <g transform="translate(0 300)">
      <rect class="card" x="0" y="0" width="720" height="120"/>
      <g transform="translate(28 28) scale(1.2)">
        <polygon class="star" points="10,0 13,7 21,8 15,13 16,21 10,17 4,21 5,13 -1,8 7,7"/>
        <g transform="translate(30 0)">
          <polygon class="star" points="10,0 13,7 21,8 15,13 16,21 10,17 4,21 5,13 -1,8 7,7"/>
        </g>
        <g transform="translate(60 0)">
          <polygon class="star" points="10,0 13,7 21,8 15,13 16,21 10,17 4,21 5,13 -1,8 7,7"/>
        </g>
        <g transform="translate(90 0)">
          <polygon class="star-o" points="10,0 13,7 21,8 15,13 16,21 10,17 4,21 5,13 -1,8 7,7"/>
        </g>
        <g transform="translate(120 0)">
          <polygon class="star-o" points="10,0 13,7 21,8 15,13 16,21 10,17 4,21 5,13 -1,8 7,7"/>
        </g>
      </g>
      <rect class="line" x="28" y="76" width="200" height="10"/>
      <rect class="line" x="240" y="76" width="220" height="10" opacity=".5"/>
    </g>
  </g>
</svg>

