<svg xmlns="http://www.w3.org/2000/svg" viewBox="0 0 960 600" role="img" aria-labelledby="title desc">
  <title id="title">Achievements illustration</title>
  <desc id="desc">Badge and trophy shapes representing unlockable achievements.</desc>
  <defs>
    <linearGradient id="bg" x1="0" y1="0" x2="1" y2="1">
      <stop offset="0%" stop-color="#3b82f6" stop-opacity="0.22"/>
      <stop offset="100%" stop-color="#22c55e" stop-opacity="0.18"/>
    </linearGradient>
    <linearGradient id="gold" x1="0" y1="0" x2="1" y2="1">
      <stop offset="0%" stop-color="#f59e0b"/>
      <stop offset="100%" stop-color="#fbbf24"/>
    </linearGradient>
    <style>
      .panel { fill: url(#bg); stroke: #cbd5e1; stroke-width: 2; }
      .medal { fill: url(#gold); stroke: #d97706; stroke-width: 2; }
      .ribbon { fill: #ef4444; }
      .badge { fill: #22d3ee; stroke: #0ea5e9; stroke-width: 2; }
      .line  { fill: #334155; opacity: .75; rx: 6; }
      .ring  { fill: none; stroke: #22c55e; stroke-width: 6; stroke-dasharray: 8 8; }
    </style>
  </defs>

  <rect x="60" y="60" width="840" height="480" rx="24" class="panel"/>

  <!-- Trophy/medal -->
  <g transform="translate(140 150)">
    <circle cx="120" cy="110" r="68" class="medal"/>
    <rect x="104" y="180" width="32" height="56" rx="6" fill="#f59e0b"/>
    <polygon class="ribbon" points="120,236 96,280 144,280"/>
    <circle cx="120" cy="110" r="46" fill="#fde68a"/>
    <polygon points="120,78 131,104 160,106 136,124 144,152 120,138 96,152 104,124 80,106 109,104" fill="#f59e0b"/>
  </g>

  <!-- Progress ring -->
  <g transform="translate(380 120)">
    <circle cx="140" cy="140" r="88" class="ring"/>
    <circle cx="140" cy="140" r="60" fill="#ffffff" stroke="#94a3b8" stroke-width="2"/>
    <rect class="line" x="90" y="138" width="100" height="12"/>
    <rect class="line" x="112" y="162" width="56" height="10" opacity=".6"/>
  </g>

  <!-- Badges row -->
  <g transform="translate(360 360)">
    <rect class="badge" x="0" y="0" width="120" height="120" rx="16"/>
    <rect class="badge" x="140" y="0" width="120" height="120" rx="16" fill="#a78bfa" stroke="#7c3aed"/>
    <rect class="badge" x="280" y="0" width="120" height="120" rx="16" fill="#34d399" stroke="#10b981"/>
  </g>
</svg>

