<svg xmlns="http://www.w3.org/2000/svg" viewBox="0 0 960 600" role="img" aria-labelledby="title desc">
  <title id="title">Community illustration</title>
  <desc id="desc">Abstract avatars and shared collection cards representing the community.</desc>
  <defs>
    <linearGradient id="bg" x1="0" y1="0" x2="1" y2="1">
      <stop offset="0%" stop-color="#a78bfa" stop-opacity="0.25"/>
      <stop offset="100%" stop-color="#22d3ee" stop-opacity="0.18"/>
    </linearGradient>
    <style>
      .panel { fill: url(#bg); stroke: #cbd5e1; stroke-width: 2; }
      .card  { fill: #fff; stroke: #94a3b8; stroke-width: 2; rx: 16; }
      .avatar { stroke: #3b82f6; stroke-width: 2.5; fill: #e0f2fe; }
      .line  { fill: #334155; opacity: .75; rx: 6; }
      .follow { fill: #22c55e; rx: 8; }
    </style>
  </defs>

  <rect x="60" y="60" width="840" height="480" rx="24" class="panel"/>

  <!-- Avatars cluster -->
  <g transform="translate(120 150)">
    <circle class="avatar" cx="80" cy="60" r="34"/>
    <circle class="avatar" cx="36" cy="104" r="26"/>
    <circle class="avatar" cx="132" cy="110" r="28"/>
    <circle class="avatar" cx="180" cy="68" r="30"/>
    <circle class="avatar" cx="220" cy="112" r="22"/>
  </g>

  <!-- Shared collection cards -->
  <g transform="translate(340 120)">
    <g>
      <rect class="card" x="0" y="0" width="520" height="120"/>
      <rect class="line" x="28" y="30" width="160" height="12"/>
      <rect class="line" x="28" y="54" width="240" height="10" opacity=".6"/>
      <rect class="follow" x="28" y="80" width="100" height="26"/>
    </g>
    <g transform="translate(0 150)">
      <rect class="card" x="0" y="0" width="520" height="120"/>
      <rect class="line" x="28" y="30" width="180" height="12"/>
      <rect class="line" x="28" y="54" width="220" height="10" opacity=".6"/>
      <rect class="follow" x="28" y="80" width="80" height="26"/>
    </g>
    <g transform="translate(0 300)">
      <rect class="card" x="0" y="0" width="520" height="120"/>
      <rect class="line" x="28" y="30" width="140" height="12"/>
      <rect class="line" x="28" y="54" width="200" height="10" opacity=".6"/>
      <rect class="follow" x="28" y="80" width="120" height="26"/>
    </g>
  </g>
</svg>

