<svg xmlns="http://www.w3.org/2000/svg" viewBox="0 0 960 600" role="img" aria-labelledby="title desc">
  <title id="title">Pricing comparison illustration</title>
  <desc id="desc">Abstract price cards and columns showing shop comparisons.</desc>
  <defs>
    <linearGradient id="bg" x1="0" y1="0" x2="1" y2="1">
      <stop offset="0%" stop-color="#f472b6" stop-opacity="0.2"/>
      <stop offset="100%" stop-color="#3b82f6" stop-opacity="0.15"/>
    </linearGradient>
    <linearGradient id="accent" x1="0" y1="0" x2="1" y2="1">
      <stop offset="0%" stop-color="#22d3ee" stop-opacity="1"/>
      <stop offset="100%" stop-color="#3b82f6" stop-opacity="1"/>
    </linearGradient>
    <filter id="shadow" x="-20%" y="-20%" width="140%" height="140%">
      <feDropShadow dx="0" dy="8" stdDeviation="12" flood-color="#0f172a" flood-opacity="0.12"/>
    </filter>
    <style>
      .panel { fill: url(#bg); stroke: #cbd5e1; stroke-width: 2; }
      .card { fill: #fff; stroke: #94a3b8; stroke-width: 2; rx: 16; }
      .bar { fill: url(#accent); rx: 8; }
      .line { stroke: #94a3b8; stroke-width: 2; stroke-linecap: round; }
      .tag  { fill: #0ea5e9; rx: 6; }
    </style>
  </defs>

  <!-- Background panel -->
  <rect x="60" y="60" width="840" height="480" rx="24" class="panel" filter="url(#shadow)"/>

  <!-- Columns / cards -->
  <g transform="translate(96 120)">
    <g transform="translate(0 0)">
      <rect class="card" x="0" y="0" width="220" height="340"/>
      <rect class="bar" x="24" y="56" width="172" height="14"/>
      <rect class="bar" x="24" y="86" width="136" height="10" opacity=".7"/>
      <rect class="bar" x="24" y="108" width="120" height="10" opacity=".5"/>
      <line class="line" x1="24" y1="148" x2="196" y2="148"/>
      <rect class="tag" x="24" y="168" width="80" height="26"/>
      <rect class="tag" x="112" y="168" width="56" height="26" opacity=".7"/>
      <rect class="bar" x="24" y="214" width="128" height="12"/>
      <rect class="bar" x="24" y="238" width="96" height="12" opacity=".6"/>
    </g>

    <g transform="translate(260 0)">
      <rect class="card" x="0" y="-12" width="220" height="364"/>
      <rect class="bar" x="24" y="44" width="172" height="14"/>
      <rect class="bar" x="24" y="74" width="152" height="10" opacity=".7"/>
      <rect class="bar" x="24" y="96" width="124" height="10" opacity=".5"/>
      <line class="line" x1="24" y1="136" x2="196" y2="136"/>
      <rect class="tag" x="24" y="156" width="96" height="26"/>
      <rect class="bar" x="24" y="202" width="160" height="12"/>
      <rect class="bar" x="24" y="226" width="120" height="12" opacity=".6"/>
    </g>

    <g transform="translate(520 0)">
      <rect class="card" x="0" y="20" width="220" height="332"/>
      <rect class="bar" x="24" y="76" width="172" height="14"/>
      <rect class="bar" x="24" y="106" width="118" height="10" opacity=".7"/>
      <rect class="bar" x="24" y="128" width="144" height="10" opacity=".5"/>
      <line class="line" x1="24" y1="168" x2="196" y2="168"/>
      <rect class="tag" x="24" y="188" width="72" height="26"/>
      <rect class="bar" x="24" y="234" width="132" height="12"/>
      <rect class="bar" x="24" y="258" width="88" height="12" opacity=".6"/>
    </g>
  </g>
</svg>

