<svg xmlns="http://www.w3.org/2000/svg" viewBox="0 0 960 600" role="img" aria-labelledby="title desc">
  <title id="title">Collection illustration</title>
  <desc id="desc">Abstract grid of cube cards representing a personal collection.</desc>
  <defs>
    <linearGradient id="g1" x1="0" y1="0" x2="1" y2="1">
      <stop offset="0%" stop-color="#3b82f6" stop-opacity="0.25"/>
      <stop offset="100%" stop-color="#a78bfa" stop-opacity="0.15"/>
    </linearGradient>
    <linearGradient id="g2" x1="0" y1="0" x2="1" y2="1">
      <stop offset="0%" stop-color="#22d3ee" stop-opacity="0.25"/>
      <stop offset="100%" stop-color="#10b981" stop-opacity="0.15"/>
    </linearGradient>
    <filter id="softShadow" x="-20%" y="-20%" width="140%" height="140%">
      <feDropShadow dx="0" dy="8" stdDeviation="12" flood-color="#0f172a" flood-opacity="0.12"/>
    </filter>
    <style>
      .panel { fill: url(#g1); stroke: #cbd5e1; stroke-width: 2; }
      .card { fill: #ffffff; stroke: #94a3b8; stroke-width: 2; rx: 14; }
      .pill { fill: url(#g2); rx: 8; }
      .cube { fill: none; stroke: #3b82f6; stroke-width: 3; }
      .label { fill: #334155; opacity: .7; }
    </style>
  </defs>

  <!-- Background panel -->
  <rect x="60" y="60" width="840" height="480" rx="24" class="panel" filter="url(#softShadow)"/>

  <!-- Header pills -->
  <rect x="96" y="96" width="92" height="20" class="pill" />
  <rect x="196" y="96" width="64" height="20" class="pill" opacity="0.7"/>
  <rect x="268" y="96" width="80" height="20" class="pill" opacity="0.5"/>

  <!-- Grid of cards -->
  <g transform="translate(96 144)">
    <!-- 3 x 3 grid -->
    <g id="row1" transform="translate(0 0)">
      <rect class="card" x="0" y="0" width="210" height="120"/>
      <rect class="card" x="230" y="0" width="210" height="120"/>
      <rect class="card" x="460" y="0" width="210" height="120"/>
    </g>
    <g id="row2" transform="translate(0 140)">
      <rect class="card" x="0" y="0" width="210" height="120"/>
      <rect class="card" x="230" y="0" width="210" height="120"/>
      <rect class="card" x="460" y="0" width="210" height="120"/>
    </g>
    <g id="row3" transform="translate(0 280)">
      <rect class="card" x="0" y="0" width="210" height="120"/>
      <rect class="card" x="230" y="0" width="210" height="120"/>
      <rect class="card" x="460" y="0" width="210" height="120"/>
    </g>

    <!-- Minimal cube glyphs in a few cards -->
    <g transform="translate(35 28)">
      <rect x="0" y="0" width="48" height="48" class="cube" rx="8"/>
      <path d="M0 24h48M24 0v48" class="cube"/>
    </g>
    <g transform="translate(265 28)">
      <rect x="0" y="0" width="48" height="48" class="cube" rx="8"/>
      <path d="M0 24h48M24 0v48" class="cube"/>
    </g>
    <g transform="translate(495 28)">
      <rect x="0" y="0" width="48" height="48" class="cube" rx="8"/>
      <path d="M0 24h48M24 0v48" class="cube"/>
    </g>
    <g transform="translate(35 168)">
      <rect x="0" y="0" width="48" height="48" class="cube" rx="8"/>
      <path d="M0 24h48M24 0v48" class="cube"/>
    </g>
    <g transform="translate(265 308)">
      <rect x="0" y="0" width="48" height="48" class="cube" rx="8"/>
      <path d="M0 24h48M24 0v48" class="cube"/>
    </g>

    <!-- Labels under a few cards -->
    <rect x="96" y="78" width="72" height="10" class="label" rx="5"/>
    <rect x="326" y="78" width="56" height="10" class="label" rx="5"/>
    <rect x="556" y="78" width="80" height="10" class="label" rx="5"/>
  </g>
</svg>

