<?xml version="1.0" encoding="UTF-8"?><svg id="Ebene_2" xmlns="http://www.w3.org/2000/svg" xmlns:xlink="http://www.w3.org/1999/xlink" viewBox="0 0 422.2 466.14"><defs><style>.cls-1{fill:url(#Unbenannter_Verlauf_6);}.cls-2{fill:url(#Unbenannter_Verlauf_145-3);}.cls-3{fill:url(#Unbenannter_Verlauf_145-2);}.cls-4{fill:url(#Unbenannter_Verlauf_136-2);}.cls-5{fill:#fffffe;}.cls-6{fill:#005989;}.cls-7{fill:#ea6d03;}.cls-8{fill:#001c29;}.cls-9{fill:url(#Unbenannter_Verlauf_62-3);}.cls-10{fill:url(#Unbenannter_Verlauf_62-2);}.cls-11{fill:url(#Unbenannter_Verlauf_6-6);}.cls-12{fill:url(#Unbenannter_Verlauf_6-3);}.cls-13{fill:url(#Unbenannter_Verlauf_6-5);}.cls-14{fill:url(#Unbenannter_Verlauf_6-2);}.cls-15{fill:url(#Unbenannter_Verlauf_6-4);}.cls-16{fill:url(#Unbenannter_Verlauf_136);}.cls-17{fill:url(#Unbenannter_Verlauf_145);}.cls-18{fill:url(#Unbenannter_Verlauf_102);}.cls-19{fill:url(#Unbenannter_Verlauf_129);}.cls-20{fill:url(#Unbenannter_Verlauf_114);}.cls-21{fill:url(#Unbenannter_Verlauf_62);}.cls-22{fill:url(#Unbenannter_Verlauf_91);}</style><linearGradient id="Unbenannter_Verlauf_6" x1="210.71" y1="193.05" x2="210.71" y2="148.59" gradientUnits="userSpaceOnUse"><stop offset="0" stop-color="#fec451"/><stop offset="1" stop-color="#fff"/></linearGradient><linearGradient id="Unbenannter_Verlauf_6-2" x1="143.58" y1="158.96" x2="143.58" y2="114.5" xlink:href="#Unbenannter_Verlauf_6"/><linearGradient id="Unbenannter_Verlauf_6-3" x1="277.84" y1="158.96" x2="277.84" y2="114.5" xlink:href="#Unbenannter_Verlauf_6"/><linearGradient id="Unbenannter_Verlauf_6-4" y1="125.57" y2="81.11" xlink:href="#Unbenannter_Verlauf_6"/><linearGradient id="Unbenannter_Verlauf_6-5" x1="78.21" y1="125.57" x2="78.21" y2="81.11" xlink:href="#Unbenannter_Verlauf_6"/><linearGradient id="Unbenannter_Verlauf_6-6" x1="342.51" y1="125.57" x2="342.51" y2="81.11" xlink:href="#Unbenannter_Verlauf_6"/><linearGradient id="Unbenannter_Verlauf_91" x1="41.69" y1="132.38" x2="41.69" y2="205.64" gradientUnits="userSpaceOnUse"><stop offset="0" stop-color="#ffc755"/><stop offset="1" stop-color="#eb9119"/></linearGradient><linearGradient id="Unbenannter_Verlauf_102" x1="108.14" y1="164.94" x2="108.14" y2="238.21" gradientUnits="userSpaceOnUse"><stop offset="0" stop-color="#ffc755"/><stop offset="1" stop-color="#eb9119"/></linearGradient><linearGradient id="Unbenannter_Verlauf_62" x1="108.14" y1="248.8" x2="108.14" y2="321.94" gradientUnits="userSpaceOnUse"><stop offset="0" stop-color="#ffc755"/><stop offset="1" stop-color="#ea6d03"/></linearGradient><linearGradient id="Unbenannter_Verlauf_62-2" x1="174.6" y1="281.24" x2="174.6" y2="354.51" xlink:href="#Unbenannter_Verlauf_62"/><linearGradient id="Unbenannter_Verlauf_114" x1="174.6" y1="199.5" x2="174.6" y2="272.76" gradientUnits="userSpaceOnUse"><stop offset="0" stop-color="#ffc755"/><stop offset="1" stop-color="#eb9119"/></linearGradient><linearGradient id="Unbenannter_Verlauf_62-3" x1="41.69" y1="214.12" x2="41.69" y2="287.38" xlink:href="#Unbenannter_Verlauf_62"/><linearGradient id="Unbenannter_Verlauf_136" x1="237.65" y1="132.38" x2="237.65" y2="205.64" gradientTransform="translate(617.73) rotate(-180) scale(1 -1)" gradientUnits="userSpaceOnUse"><stop offset="0" stop-color="#0cb2c7"/><stop offset="1" stop-color="#0594b5"/></linearGradient><linearGradient id="Unbenannter_Verlauf_136-2" x1="304.11" y1="164.94" x2="304.11" y2="238.21" xlink:href="#Unbenannter_Verlauf_136"/><linearGradient id="Unbenannter_Verlauf_145" x1="304.11" y1="248.68" x2="304.11" y2="321.94" gradientTransform="translate(617.73) rotate(-180) scale(1 -1)" gradientUnits="userSpaceOnUse"><stop offset="0" stop-color="#0594b5"/><stop offset="1" stop-color="#00588b"/></linearGradient><linearGradient id="Unbenannter_Verlauf_145-2" x1="370.57" y1="281.24" x2="370.57" y2="354.51" xlink:href="#Unbenannter_Verlauf_145"/><linearGradient id="Unbenannter_Verlauf_129" x1="370.57" y1="199.5" x2="370.57" y2="272.76" gradientTransform="translate(617.73) rotate(-180) scale(1 -1)" gradientUnits="userSpaceOnUse"><stop offset="0" stop-color="#0cb2c7"/><stop offset="1" stop-color="#0594b5"/></linearGradient><linearGradient id="Unbenannter_Verlauf_145-3" x1="237.65" y1="214.12" x2="237.65" y2="287.38" xlink:href="#Unbenannter_Verlauf_145"/></defs><path class="cls-8" d="M196.4,3.17L13.01,96.53S.3,101.99,0,117.14v228.08s-.21,14.98,15.58,23.58c15.78,8.6,178.62,92.65,178.62,92.65,0,0,14.68,10.54,34.62,0l180-94.54s13.28-7.65,13.28-24.39V120.27s2.21-13.26-12.29-22.1C395.29,89.33,224.79,2.83,224.79,2.83c0,0-13.6-6.59-28.39.34Z"/><path class="cls-1" d="M172.41,165.82l31.36-15.68s5.23-3.48,13.36,0l31.94,16.65s7.74,4.65-.39,8.71-31.75,16.26-31.75,16.26c0,0-5.61,2.9-12.39,0s-33.69-16.84-33.69-16.84c0,0-5.03-4.45,1.55-9.1Z"/><path class="cls-14" d="M105.28,131.73l31.36-15.68s5.23-3.48,13.36,0l31.94,16.65s7.74,4.65-.39,8.71c-8.13,4.07-31.75,16.26-31.75,16.26,0,0-5.61,2.9-12.39,0s-33.69-16.84-33.69-16.84c0,0-5.03-4.45,1.55-9.1Z"/><path class="cls-12" d="M239.54,131.73l31.36-15.68s5.23-3.48,13.36,0l31.94,16.65s7.74,4.65-.39,8.71-31.75,16.26-31.75,16.26c0,0-5.61,2.9-12.39,0s-33.69-16.84-33.69-16.84c0,0-5.03-4.45,1.55-9.1Z"/><path class="cls-15" d="M172.41,98.34l31.36-15.68s5.23-3.48,13.36,0l31.94,16.65s7.74,4.65-.39,8.71-31.75,16.26-31.75,16.26c0,0-5.61,2.9-12.39,0s-33.69-16.84-33.69-16.84c0,0-5.03-4.45,1.55-9.1Z"/><path class="cls-5" d="M107.74,64.25l31.36-15.68s5.23-3.48,13.36,0l31.94,16.65s7.74,4.65-.39,8.71-31.75,16.26-31.75,16.26c0,0-5.61,2.9-12.39,0s-33.69-16.84-33.69-16.84c0,0-5.03-4.45,1.55-9.1Z"/><path class="cls-5" d="M238.13,66.01l31.36-15.68s5.23-3.48,13.36,0l31.94,16.65s7.74,4.65-.39,8.71c-8.13,4.07-31.75,16.26-31.75,16.26,0,0-5.61,2.9-12.39,0s-33.69-16.84-33.69-16.84c0,0-5.03-4.45,1.55-9.1Z"/><path class="cls-5" d="M172.41,33.32l31.36-15.68s5.23-3.48,13.36,0l31.94,16.65s7.74,4.65-.39,8.71c-8.13,4.07-31.75,16.26-31.75,16.26,0,0-5.61,2.9-12.39,0s-33.69-16.84-33.69-16.84c0,0-5.03-4.45,1.55-9.1Z"/><path class="cls-13" d="M39.91,98.34l31.36-15.68s5.23-3.48,13.36,0l31.94,16.65s7.74,4.65-.39,8.71-31.75,16.26-31.75,16.26c0,0-5.61,2.9-12.39,0s-33.69-16.84-33.69-16.84c0,0-5.03-4.45,1.55-9.1Z"/><path class="cls-11" d="M304.2,98.34l31.36-15.68s5.23-3.48,13.36,0l31.94,16.65s7.74,4.65-.39,8.71-31.75,16.26-31.75,16.26c0,0-5.61,2.9-12.39,0s-33.69-16.84-33.69-16.84c0,0-5.03-4.45,1.55-9.1Z"/><path class="cls-22" d="M18.57,139.16v41.42c0,.21,0,.42-.03.63-.13,1.07-.42,5.43,3.22,7.36,3.84,2.03,30.18,14.48,34.29,16.42.43.2.87.35,1.33.44,1.96.38,6.91.85,7.3-3.86.46-5.56.05-39.84,0-43.57,0-.2.01-.39.03-.59.13-1.18.21-6.09-6.66-9.3s-24.68-12.56-29.47-15.07c-.95-.5-2.02-.72-3.1-.63-2.38.2-6.21,1.27-6.88,5.99-.04.25-.05.51-.05.77Z"/><path class="cls-18" d="M85.03,171.72v41.42c0,.21,0,.42-.03.63-.13,1.07-.42,5.43,3.22,7.36,3.84,2.03,30.18,14.48,34.29,16.42.43.2.87.35,1.33.44,1.96.38,6.91.85,7.3-3.86.46-5.56.05-39.84,0-43.57,0-.2.01-.39.03-.59.13-1.18.21-6.09-6.66-9.3s-24.68-12.56-29.47-15.07c-.95-.5-2.02-.72-3.1-.63-2.38.2-6.21,1.27-6.88,5.99-.04.25-.05.51-.05.77Z"/><path class="cls-21" d="M85.03,255.46v41.26c0,.31-.02.62-.05.94-.13,1.29-.25,5.36,3.24,7.21,3.74,1.98,28.85,13.85,33.93,16.25.76.36,1.57.61,2.41.72,2.24.3,6.23.23,6.58-3.98.46-5.47.06-38.71,0-43.36,0-.27,0-.53.03-.8.13-1.18.21-6.09-6.66-9.3-6.4-3-22.75-11.55-28.56-14.6-2.22-1.17-4.88-1.36-7.15-.31-1.72.79-3.31,2.31-3.72,5.21-.04.25-.05.51-.05.77Z"/><path class="cls-10" d="M151.49,288.02v41.42c0,.21,0,.42-.03.63-.13,1.07-.42,5.43,3.22,7.36,3.84,2.03,30.18,14.48,34.29,16.42.43.2.87.35,1.33.44,1.96.38,6.91.85,7.3-3.86.46-5.56.05-39.84,0-43.57,0-.2.01-.39.03-.59.13-1.18.21-6.09-6.66-9.3-6.77-3.17-24.68-12.56-29.47-15.07-.95-.5-2.02-.72-3.1-.63-2.38.2-6.21,1.27-6.88,5.99-.04.25-.05.51-.05.77Z"/><path class="cls-20" d="M151.49,206.28v41.42c0,.21,0,.42-.03.63-.13,1.07-.42,5.43,3.22,7.36,3.84,2.03,30.18,14.48,34.29,16.42.43.2.87.35,1.33.44,1.96.38,6.91.85,7.3-3.86.46-5.56.05-39.84,0-43.57,0-.2.01-.39.03-.59.13-1.18.21-6.09-6.66-9.3s-24.68-12.56-29.47-15.07c-.95-.5-2.02-.72-3.1-.63-2.38.2-6.21,1.27-6.88,5.99-.04.25-.05.51-.05.77Z"/><path class="cls-9" d="M18.57,220.9v41.42c0,.21,0,.42-.03.63-.13,1.07-.42,5.43,3.22,7.36,3.84,2.03,30.18,14.48,34.29,16.42.43.2.87.35,1.33.44,1.96.38,6.91.85,7.3-3.86.46-5.56.05-39.84,0-43.57,0-.2.01-.39.03-.59.13-1.18.21-6.09-6.66-9.3s-24.68-12.56-29.47-15.07c-.95-.5-2.02-.72-3.1-.63-2.38.2-6.21,1.27-6.88,5.99-.04.25-.05.51-.05.77Z"/><path class="cls-7" d="M18.57,301.98v41.42c0,.21,0,.42-.03.63-.13,1.07-.42,5.43,3.22,7.36,3.84,2.03,30.18,14.48,34.29,16.42.43.2.87.35,1.33.44,1.96.38,6.91.85,7.3-3.86.46-5.56.05-39.84,0-43.57,0-.2.01-.39.03-.59.13-1.18.21-6.09-6.66-9.3s-24.68-12.56-29.47-15.07c-.95-.5-2.02-.72-3.1-.63-2.38.2-6.21,1.27-6.88,5.99-.04.25-.05.51-.05.77Z"/><path class="cls-7" d="M84.7,334.7v41.42c0,.21,0,.42-.03.63-.13,1.07-.42,5.43,3.22,7.36,3.84,2.03,30.18,14.48,34.29,16.42.43.2.87.35,1.33.44,1.96.38,6.91.85,7.3-3.86.46-5.56.05-39.84,0-43.57,0-.2.01-.39.03-.59.13-1.18.21-6.09-6.66-9.3-6.77-3.17-24.68-12.56-29.47-15.07-.95-.5-2.02-.72-3.1-.63-2.38.2-6.21,1.27-6.88,5.99-.04.25-.05.51-.05.77Z"/><path class="cls-7" d="M152.25,369.42v41.42c0,.21,0,.42-.03.63-.13,1.07-.42,5.43,3.22,7.36,3.84,2.03,30.18,14.48,34.29,16.42.43.2.87.35,1.33.44,1.96.38,6.91.85,7.3-3.86.46-5.56.05-39.84,0-43.57,0-.2.01-.39.03-.59.13-1.18.21-6.09-6.66-9.3-6.77-3.17-24.68-12.56-29.47-15.07-.95-.5-2.02-.72-3.1-.63-2.38.2-6.21,1.27-6.88,5.99-.04.25-.05.51-.05.77Z"/><path class="cls-16" d="M403.19,139.16v41.42c0,.21,0,.42.03.63.13,1.07.42,5.43-3.22,7.36-3.84,2.03-30.18,14.48-34.29,16.42-.43.2-.87.35-1.33.44-1.96.38-6.91.85-7.3-3.86-.46-5.56-.05-39.84,0-43.57,0-.2-.01-.39-.03-.59-.13-1.18-.21-6.09,6.66-9.3,6.77-3.17,24.68-12.56,29.47-15.07.95-.5,2.02-.72,3.1-.63,2.38.2,6.21,1.27,6.88,5.99.04.25.05.51.05.77Z"/><path class="cls-4" d="M336.73,171.72v41.42c0,.21,0,.42.03.63.13,1.07.42,5.43-3.22,7.36-3.84,2.03-30.18,14.48-34.29,16.42-.43.2-.87.35-1.33.44-1.96.38-6.91.85-7.3-3.86-.46-5.56-.05-39.84,0-43.57,0-.2-.01-.39-.03-.59-.13-1.18-.21-6.09,6.66-9.3s24.68-12.56,29.47-15.07c.95-.5,2.02-.72,3.1-.63,2.38.2,6.21,1.27,6.88,5.99.04.25.05.51.05.77Z"/><path class="cls-17" d="M336.73,255.46v41.42c0,.21,0,.42.03.63.13,1.07.42,5.43-3.22,7.36-3.84,2.03-30.18,14.48-34.29,16.42-.43.2-.87.35-1.33.44-1.96.38-6.91.85-7.3-3.86-.46-5.56-.05-39.84,0-43.57,0-.2-.01-.39-.03-.59-.13-1.18-.21-6.09,6.66-9.3s24.68-12.56,29.47-15.07c.95-.5,2.02-.72,3.1-.63,2.38.2,6.21,1.27,6.88,5.99.04.25.05.51.05.77Z"/><path class="cls-3" d="M270.28,288.02v41.42c0,.21,0,.42.03.63.13,1.07.42,5.43-3.22,7.36-3.84,2.03-30.18,14.48-34.29,16.42-.43.2-.87.35-1.33.44-1.96.38-6.91.85-7.3-3.86-.46-5.56-.05-39.84,0-43.57,0-.2-.01-.39-.03-.59-.13-1.18-.21-6.09,6.66-9.3,6.77-3.17,24.68-12.56,29.47-15.07.95-.5,2.02-.72,3.1-.63,2.38.2,6.21,1.27,6.88,5.99.04.25.05.51.05.77Z"/><path class="cls-19" d="M270.28,206.28v41.42c0,.21,0,.42.03.63.13,1.07.42,5.43-3.22,7.36-3.84,2.03-30.18,14.48-34.29,16.42-.43.2-.87.35-1.33.44-1.96.38-6.91.85-7.3-3.86-.46-5.56-.05-39.84,0-43.57,0-.2-.01-.39-.03-.59-.13-1.18-.21-6.09,6.66-9.3s24.68-12.56,29.47-15.07c.95-.5,2.02-.72,3.1-.63,2.38.2,6.21,1.27,6.88,5.99.04.25.05.51.05.77Z"/><path class="cls-2" d="M403.19,220.9v41.42c0,.21,0,.42.03.63.13,1.07.42,5.43-3.22,7.36-3.84,2.03-30.18,14.48-34.29,16.42-.43.2-.87.35-1.33.44-1.96.38-6.91.85-7.3-3.86-.46-5.56-.05-39.84,0-43.57,0-.2-.01-.39-.03-.59-.13-1.18-.21-6.09,6.66-9.3s24.68-12.56,29.47-15.07c.95-.5,2.02-.72,3.1-.63,2.38.2,6.21,1.27,6.88,5.99.04.25.05.51.05.77Z"/><path class="cls-6" d="M403.19,301.98v41.42c0,.21,0,.42.03.63.13,1.07.42,5.43-3.22,7.36-3.84,2.03-30.18,14.48-34.29,16.42-.43.2-.87.35-1.33.44-1.96.38-6.91.85-7.3-3.86-.46-5.56-.05-39.84,0-43.57,0-.2-.01-.39-.03-.59-.13-1.18-.21-6.09,6.66-9.3s24.68-12.56,29.47-15.07c.95-.5,2.02-.72,3.1-.63,2.38.2,6.21,1.27,6.88,5.99.04.25.05.51.05.77Z"/><path class="cls-6" d="M337.06,334.7v41.42c0,.21,0,.42.03.63.13,1.07.42,5.43-3.22,7.36-3.84,2.03-30.18,14.48-34.29,16.42-.43.2-.87.35-1.33.44-1.96.38-6.91.85-7.3-3.86-.46-5.56-.05-39.84,0-43.57,0-.2-.01-.39-.03-.59-.13-1.18-.21-6.09,6.66-9.3,6.77-3.17,24.68-12.56,29.47-15.07.95-.5,2.02-.72,3.1-.63,2.38.2,6.21,1.27,6.88,5.99.04.25.05.51.05.77Z"/><path class="cls-6" d="M269.51,369.42v41.42c0,.21,0,.42.03.63.13,1.07.42,5.43-3.22,7.36-3.84,2.03-30.18,14.48-34.29,16.42-.43.2-.87.35-1.33.44-1.96.38-6.91.85-7.3-3.86-.46-5.56-.05-39.84,0-43.57,0-.2-.01-.39-.03-.59-.13-1.18-.21-6.09,6.66-9.3,6.77-3.17,24.68-12.56,29.47-15.07.95-.5,2.02-.72,3.1-.63,2.38.2,6.21,1.27,6.88,5.99.04.25.05.51.05.77Z"/></svg>